# xmcd
# 
# Track frame offsets:
#     150
#     22185
#     42835
#     61320
#     79250
# 
# Disc length: 1347
# 
# Revision: 0
# Processed by: cddbd v1.5.2PL0 Copyright (c) Steve Scherf et al.
# Submitted via: BonkEnc v1.0.8
# 
DISCID=3b054105
DTITLE=MAY'S - My Everything
DYEAR=2008
DGENRE=Pop
TTITLE0=My Everything
TTITLE1=Teddy's story
TTITLE2=Rock With U
TTITLE3=Appreciation (Remix)
TTITLE4=My Everything (instrumental)
EXTD=
EXTT0=
EXTT1=
EXTT2=
EXTT3=
EXTT4=
PLAYORDER=
